<svg xmlns="http://www.w3.org/2000/svg" viewBox="0 0 386.64 140.33"><defs><style>.cls-1,.cls-2{fill:#fff;}.cls-2{fill-rule:evenodd;}</style></defs><title>アセット 1</title><g id="レイヤー_2" data-name="レイヤー 2"><g id="レイヤー_1-2" data-name="レイヤー 1"><g id="design"><path class="cls-1" d="M231.05,97.06h4.13v21.85h-4.13Z"/><path class="cls-1" d="M237.71,97.06h12.08v4.1h-4v17.75h-4.22V101.16h-3.88Z"/><path class="cls-1" d="M263,96.51a10.92,10.92,0,0,1,8,3.35,11.2,11.2,0,0,1,3.34,8.19,11,11,0,0,1-3.3,8.1,11.42,11.42,0,0,1-16.15-.07l0,0a11.7,11.7,0,0,1-1.74-13.85A11.45,11.45,0,0,1,257.24,98,11.28,11.28,0,0,1,263,96.51Zm0,4.07a6.82,6.82,0,0,0-5.1,2.11,7.33,7.33,0,0,0-2.07,5.36,7,7,0,0,0,2.6,5.74,7.09,7.09,0,0,0,4.64,1.65,6.77,6.77,0,0,0,5-2.15,7.7,7.7,0,0,0,0-10.55,6.85,6.85,0,0,0-5.15-2.16Z"/><path class="cls-1" d="M276.65,97.06h4.47l4.07,7.86,4.06-7.86h4.41l-6.4,12.39v9.46h-4.19v-9.46Z"/><path class="cls-1" d="M303.74,97.06H308l8.41,21.85H312l-1.71-4.5h-8.92l-1.78,4.5h-4.32Zm2.14,5.79-2.94,7.5h5.85Z"/><path class="cls-1" d="M188.5,37.41c0,1.15-1.15,3.14-3.37,6a30.75,30.75,0,0,1-4,4.3c.07,4.14.15,10.66.15,19.56,0,6.91-.31,11.51-.77,13.66-.53,2.77-1.69,4.15-3.45,4.15s-3.15-1-4.53-3c.77-3.22,1.23-9,1.23-17.49,0-4.68-.08-8.44-.08-11.21-3.37,2-6.14,2.92-8.28,2.92s-3-.77-3-2.45.77-3.69,2.38-6c.16.46.69.62,1.46.62,2.23,0,4.91-1.08,8-3.23A45.4,45.4,0,0,0,183.45,37a3.91,3.91,0,0,1,2.92-1.68A1.93,1.93,0,0,1,188.5,37,1.55,1.55,0,0,1,188.5,37.41Zm40.06,2c1.61.46,2.45,1.15,2.45,2.15a11.42,11.42,0,0,1-1,2.84,45,45,0,0,0-2.61,7.75c2.3.38,4.75.76,7.21,1.15a10.54,10.54,0,0,1-1.54,4.91c-.76,1.15-1.53,1.69-2.37,1.69a14.67,14.67,0,0,1-4.23-1,1.61,1.61,0,0,1-.61-.15c-.53,2.45-1,5-1.45,7.74a2.17,2.17,0,0,1-2.28,2.08H222a53.07,53.07,0,0,1-5.91-.46c-3.15-.31-6.83-.46-11.13-.46a31.29,31.29,0,0,1-6.52,11.51c-3.84,3.76-7.44,5.6-10.9,5.6-2.22,0-3.3-.85-3.3-2.69A7.32,7.32,0,0,1,187,76.31c0,.61.46.92,1.53.92a8.42,8.42,0,0,0,6.6-3.37,19.59,19.59,0,0,0,3.3-6.07c-1.38.16-2.68.23-3.83.31a30.42,30.42,0,0,1-5.53.77c-1.84,0-2.68-1.15-2.68-3.61,0-2,1.38-3,4.22-3H200c.3-1.76.54-3.68.69-5.83-3.84.16-7.37.47-10.67.93a20.75,20.75,0,0,1-3.6.38,2.69,2.69,0,0,1-1.85-.92,2.41,2.41,0,0,1-.84-1.77c0-1.84.77-2.91,2.38-3.3a141.93,141.93,0,0,1,15-1.07c0-1.61.08-3.38.08-5.22v-.23c-1.61,0-2.69.08-3.23.08a34.3,34.3,0,0,1-4.29.46c-2.23,0-3.3-1.07-3.3-3.3a3.07,3.07,0,0,1,1.53-2.91c.77-.47,2.38-.7,4.76-.7,18.65,0,29.37.23,31.93.54ZM206.38,62.26h9.67a2.87,2.87,0,0,0,3.07-2.6s.15-.77.46-2.3a68.07,68.07,0,0,0-11.66-1.08h-.62A57.16,57.16,0,0,1,206.38,62.26Zm1.38-11.65h1.39a114.93,114.93,0,0,1,11.58.68c.31-1.53.61-3.14,1-4.91,0-.76-.62-1.22-1.77-1.22H208c0,1.91-.12,3.76-.2,5.45Z"/><path class="cls-1" d="M251.74,48.92c.15.15.23.15.23.15h5c4.45,0,7.28.07,8.51.07.77.16,1.23.54,1.23,1.16a11.19,11.19,0,0,1-.54,2.68c-.3,2.31-.38,10.05-.38,23.33v6.91A2.34,2.34,0,0,1,265,85a3.41,3.41,0,0,1-2.15.69c-1.23,0-2-.31-2.3-1.07a12.15,12.15,0,0,1-.7-5l.08-3.68c-1.23-.08-2.38-.16-3.37-.16a52.07,52.07,0,0,0-5.3.23,22.45,22.45,0,0,1-1.61,5c-1.69,2.91-3.91,4.37-6.83,4.37-1.69,0-2.45-1.07-2.45-3.3a21.76,21.76,0,0,1,.3-4.83.83.83,0,0,0,.92.61c1.08,0,2-.84,2.92-2.53,1.23-2,1.84-7.59,1.84-16.88a45.27,45.27,0,0,0-.23-5.07,8.74,8.74,0,0,1-.31-2.22,2.78,2.78,0,0,1,.85-2.07,4.2,4.2,0,0,1,2.68-.61A4.72,4.72,0,0,1,251.74,48.92Zm2.38-11.21a2.45,2.45,0,0,1,1.07-1.91A5,5,0,0,1,258,35a4.45,4.45,0,0,1,2.53.69,2.38,2.38,0,0,1,1.08,1.77v1.76c3.68.08,6.83.15,9.59.31.92.08,1.46.3,1.46.61A6.16,6.16,0,0,1,272,42.9a1.71,1.71,0,0,1-1.66,1.1H261.1a24,24,0,0,1-.69,2.38A2.64,2.64,0,0,1,258,47.84c-1.23,0-2.07-.39-2.38-1.15a10.51,10.51,0,0,1-.84-2.69,82.72,82.72,0,0,0-9.44.54,14.63,14.63,0,0,1-2.38.31c-1.38,0-2.07-.54-2.07-1.77a3.45,3.45,0,0,1,.92-2.68c.92-.62,5.07-1.08,12.35-1.23a10.14,10.14,0,0,1,0-1.46Zm2.38,33.53c1.15,0,2.3.08,3.37.16l.08-6.07c-1.15,0-2.23-.07-3.15-.07-1.69,0-3.14.07-4.37.16-.15,2.3-.31,4.29-.46,6A38,38,0,0,1,256.5,71.24Zm.3-10.5c1.08,0,2.15.07,3.23.07l.07-6.06c0-.38-.46-.62-1.23-.62h-6.29v6.75C253.81,60.81,255.19,60.74,256.8,60.74Zm21.95-13.82c.53.31.84.61.84.92a13.17,13.17,0,0,1-.61,3.84c-.08.23-.16.38-.23.54,1.38,0,2.76-.08,4.3-.08.3-.77.68-1.53,1-2.23.69-2.15,1.61-3.22,2.76-3.22,2,0,3,.92,3,2.69a9.78,9.78,0,0,1-.46,2.68c2,0,4.06.08,6.21.16-.31-.47-.38-1.61-.38-3.46a1.45,1.45,0,0,1,.62-1.31,3,3,0,0,1,1.76-.46,3.42,3.42,0,0,1,2.07.7,1.84,1.84,0,0,1,.92,1.38,5.78,5.78,0,0,1-1.46,2.84c-.15.15-.23.31-.38.38,2.38.15,4.83.23,7.29.39a6.52,6.52,0,0,1-1,3.52,2,2,0,0,1-1.38.7,29.22,29.22,0,0,1-4.38-.39c-1.22-.15-2.45-.31-3.52-.46a20.07,20.07,0,0,0,2.84,3.53c3.14.15,6.44.39,9.82.61a7.57,7.57,0,0,1-1,3.77,2,2,0,0,1-1.38.69,14.16,14.16,0,0,1-1.84-.08A42,42,0,0,0,309.29,68a8.74,8.74,0,0,1-1.61,4.22,3.2,3.2,0,0,1-2.61,1.45c-.54,0-1.69-1.07-3.45-3.3-2.15-2.6-3.92-4.83-5.38-6.83a84.48,84.48,0,0,0-9.13-.61c-1.23,0-2.3.08-3.22.08a33.24,33.24,0,0,1-5,5.91,16,16,0,0,1,1.38,1.23c1.54,1.61,2.31,2.6,2.31,2.91,0,.85-.54,1.23-1.46,1.23a5.06,5.06,0,0,1-1.39-.23c-1-.15-2-.23-3.06-.31s-1.61-.77-1.61-2.15v-.08a13.13,13.13,0,0,1-6,1.85,2.09,2.09,0,0,1-2.38-1.75,2.22,2.22,0,0,1,0-.63,6,6,0,0,1,2.07-4.46c.23.62.85.85,1.84.85,1.46,0,3.23-1.07,5.3-3.37l.38-.39c-1.22.16-2.3.39-3.22.54a31.76,31.76,0,0,1-4,.54,1.6,1.6,0,0,1-1.3-.62,2.13,2.13,0,0,1-.46-1.46,2.37,2.37,0,0,1,1.15-2.14c1.45-.54,5.06-.93,10.81-1.08.62-1.07,1.31-2.23,2-3.45-2.53.23-4.76.53-6.6.84a27.85,27.85,0,0,1-3.76.38,1.58,1.58,0,0,1-1.3-.53,2.16,2.16,0,0,1-.54-1.54,1.86,1.86,0,0,1,1.23-1.76,22,22,0,0,1,5.52-.92,1.3,1.3,0,0,1-.38-.54,7.68,7.68,0,0,1-1.23-3.37,2.17,2.17,0,0,1,.69-1.47,4.41,4.41,0,0,1,2-.61A4.23,4.23,0,0,1,278.75,46.92Zm3.84,30.31c0,1.38-1,2.92-3,4.6q-3.79,3.23-6.9,3.23c-1.23,0-1.77-.77-1.77-2.46a4.06,4.06,0,0,1,.85-3c.07.23.38.31.92.31,2,0,4.29-.92,6.83-2.77a5.17,5.17,0,0,1,2.14-.84.81.81,0,0,1,.93.67A1.13,1.13,0,0,1,282.59,77.23Zm6-39.82a2.63,2.63,0,0,1,1.15-2.07,3.72,3.72,0,0,1,2.46-.7,5.05,5.05,0,0,1,2.91.92,2.11,2.11,0,0,1,1.31,1.85v1.15c3.91.15,8.13.46,12.58.92a8.76,8.76,0,0,1-1.3,4.6,2.16,2.16,0,0,1-1.69.77,13.56,13.56,0,0,1-3.22-.54,47.3,47.3,0,0,0-7-1.15,11.07,11.07,0,0,1-1.24,2.92,3,3,0,0,1-2.68,1.45,2,2,0,0,1-1.77-.84,8.07,8.07,0,0,1-1.1-3.38,49.37,49.37,0,0,0-6.83,1.23,17.59,17.59,0,0,1-3.45.62,2.19,2.19,0,0,1-1.69-.77,2.69,2.69,0,0,1-.69-1.92,2.46,2.46,0,0,1,1.54-2.38c1.38-.77,4.91-1.23,10.74-1.46Zm1.84,28.46a3.82,3.82,0,0,1,1.46,3l-.31,9.28a10,10,0,0,1-1.07,4.91,3.11,3.11,0,0,1-2.84,1.69,3.9,3.9,0,0,1-2.76-1c-.77-.61-1.08-2.22-1.08-5V68.87a3.63,3.63,0,0,1,1-2.69,4.4,4.4,0,0,1,2.84-.92,6.17,6.17,0,0,1,2.74.61Zm0-10.12c-.77,0-1.53-.08-2.15-.08h-.38c-.46.92-.92,1.76-1.38,2.68a5.27,5.27,0,0,1-.46.92h1.07c1.92,0,3.92.08,6,.08a35.38,35.38,0,0,1-2.72-3.6Zm9,13.27a3.1,3.1,0,0,1,.92,2.22A2.57,2.57,0,0,1,299,73.78a14.2,14.2,0,0,1-4.38.76c-1,0-1.45-.38-1.45-1.22,0-.46.84-1.7,2.69-3.84.61-.77,1.15-1.23,1.76-1.23a2.53,2.53,0,0,1,1.8.75Zm-1.77,8a29.71,29.71,0,0,0,8.06,2.92A7.27,7.27,0,0,1,304,83.29a3.21,3.21,0,0,1-2.22.85,7.23,7.23,0,0,1-4.3-1.69c-2.76-2.3-4.07-4.15-4.07-5.53a.74.74,0,0,1,.62-.84.89.89,0,0,1,.23,0,9.15,9.15,0,0,1,3.36.92Z"/><path class="cls-1" d="M375.9,36.1c2.3.23,3.53.69,3.53,1.31a3.7,3.7,0,0,1-.46,1.84,40,40,0,0,0-2.61,7.9c-.46,1.53-1.15,2.23-2.07,2.23s-3.23-.08-6.83-.31c-5.37-.15-12-.31-20-.31-5.68,0-10.82.08-15.35.16C331.5,58.2,330,65,327.59,69.33c-2.92,5.29-6.07,7.9-9.6,7.9a2.48,2.48,0,0,1-2.4-1.23,4.81,4.81,0,0,1-.62-2.68,16,16,0,0,1,1.46-6c.15.23.46.31.92.31,1.84,0,3.45-1.46,5-4.45q2.53-6.33,2.53-20.72V37.71a2.76,2.76,0,0,1,1.07-2.3,3.79,3.79,0,0,1,2.54-1,4,4,0,0,1,2.91,1.14h22.7C364.85,35.56,372.06,35.8,375.9,36.1Zm1.3,16.58c1.46.07,2.23.3,2.23.61a6.91,6.91,0,0,1-.69,3,1.79,1.79,0,0,1-1.69,1.15c-1.23,0-3.07-.07-5.52-.23.15.16.3.31.46.46,1.91,2,2.91,3.84,2.91,5.53,0,1.23-.69,1.76-2.07,1.76a24.25,24.25,0,0,1-3.07-.23,42.15,42.15,0,0,0-6.45-.38H361.4v3.3c5.37.15,11.12.31,17.11.61a8.08,8.08,0,0,1-1,3.84,1.72,1.72,0,0,1-1.38.69,47.74,47.74,0,0,1-5.6-.38c-3.3-.31-6.37-.54-9.13-.69v4.14c6.75.15,15.19.76,25.24,1.69A9.79,9.79,0,0,1,385,82.22c-.77,1.07-1.53,1.61-2.3,1.61a28.89,28.89,0,0,1-5.07-.69,129.07,129.07,0,0,0-21.94-2,137,137,0,0,0-24.18,2,27.13,27.13,0,0,1-4.91.69A2.1,2.1,0,0,1,325,83a2,2,0,0,1-.76-1.53,2.74,2.74,0,0,1,2.07-3C333,76.92,341.9,76,353,75.77V71.62A71.48,71.48,0,0,0,340.37,73a27.85,27.85,0,0,1-4.45.61,2,2,0,0,1-1.54-.61,1.89,1.89,0,0,1-.53-1.46,2.15,2.15,0,0,1,1.53-2.07c2-1.07,7.91-1.69,17.65-1.84V64.42a65,65,0,0,0-8.36.69,37.39,37.39,0,0,1-4.84.46c-1.38,0-2.07-.62-2.07-1.84,0-.92,1.54-3.08,4.68-6.53l-3.76.23a33.4,33.4,0,0,1-3.6.31c-1.46,0-2.15-.54-2.15-1.77a2.8,2.8,0,0,1,.92-2.37c1.68-.77,10-1.23,24.86-1.23,7.29,0,13.43.15,18.49.31Zm-44.89-8.22c6.83-.15,11.9-.23,15.12-.23,4.91,0,12,.23,21.18.62.31,0,.54-.08.61-.31L370.45,41c0-.31-.84-.53-2.53-.69-4.45-.15-9.59-.23-15.27-.23-8.52,0-15.27.08-20.26.15C332.39,41.7,332.31,43.08,332.31,44.46Zm14.73,16c0,.22.31.31.93.31,3.06-.16,6.37-.31,9.9-.31h9.28c.54,0,.85-.08.85-.24a2.78,2.78,0,0,0-.93-1.3A7.29,7.29,0,0,1,365,57c-2.38,0-4.68-.07-6.9-.07-2.92,0-5.45.07-7.75.07Z"/><path class="cls-2" d="M117.89,31.5c4.35.27,7.67-1.18,11.36-4.43C127.44,21.12,120.4,17.71,114,16c-6.21,7-12.58,13.1-20,13.07a32,32,0,0,0,1.28,3.72c4.8,1.88,7.63,7,5.34,14.79,4.81,2,6.38,5.67,10.79,5.31,11.1-11.21-.28-14.2-8.07-19.14,13.57-2.87,22.22,15.66,6.85,22-.93,4.08,2.3,7.52,5.43,11,10.61-2.25,7.86-13.77,7-19.31,5,3.39,6.4,7.54,3.57,13.39-1.58,3.26-6.67,5.87-7.7,8.71-1.26,3.46,1.17,6.25,3.28,8.61,8.83-3,7.24-13.14,7.14-18.27,3.92,3.6,3.64,8,1.12,12.71C126.19,79.73,116.4,83.77,124.3,89c5.88-.59,6-10.88,8.73-12.61,5.92,10.7-15.94,15-11.36,23.75,5,1.31,7.31-8.27,10.42-9.66,2.83,10.23-15.62,10.91-14.65,21.58,3.35,1.46,5.5-3.75,8.07-6.61,1.93,5.6-6.2,9.7-10.23,10.7-4.91,12.39-17,17.35-26.38,23.92,5.68,1.46,14.58-4.42,20-7.91,2.62-1.7,4.67-3.89,7.13-5.4s4.6-.91,6.38-3.13c3.89-4.84.49-11.72,6.57-15,2.82,2.78-4.78,7.17-1.69,9.92.88.57,1.43-.67,2.26-.35l5.16-6.7c-2.77-3.94-6-10.42-.18-13.92,1.85,3.11-2.56,7.19.09,10.18,3.47.82,5.38-5.29,5.63-7.31-4-4-7.3-8.17-3.56-13.4,3.54,3-2.09,7.48,4.12,10.09,4-.82,1.18-5.16,3.85-7.56-4.65-3.75-10.39-7.74-8.25-13.75,2.27-2.06,1.58,2.57,2.53,4.43,1.22,2.37,1.4,5.61,5.63,5.58,2.24-3.21,1.85-6,1.88-8.88-4.84-2.75-14.37-8.6-12-15.32,4.3,1.76,3.16,11,11.44,12.19C150,68.93,147.53,65,147,60.8c-2.36-2-7.22.14-10.7-1.57-4-1.95-8-6.14-5.91-10.35,3.24,3.54,8.49,11.57,14.27,8.53,1-4.09-2.36-7.51-2.06-11.49-5.75.37-20.25,1.83-20.55-8.1,5,5.49,12.66,8.94,17.73,5.32,1.8-5.11-5.07-8.88-5.34-13.67-8.81.53-19.19,9-27.78,0C110.42,27.35,114,31.26,117.89,31.5Z"/><path class="cls-2" d="M30.18,31.5c-4.35.27-7.66-1.18-11.36-4.43,1.81-5.95,8.85-9.36,15.3-11.06,6.21,7,12.57,13.1,20,13.07a34.68,34.68,0,0,1-1.27,3.72c-4.8,1.88-7.63,7-5.34,14.79-4.82,2-6.39,5.67-10.79,5.31-11.1-11.21.27-14.2,8.06-19.14C31.26,30.89,22.6,49.42,38,55.77c.92,4.08-2.3,7.52-5.44,11-10.63-2.28-7.88-13.77-7-19.34-5,3.39-6.4,7.54-3.56,13.39,1.57,3.26,6.67,5.87,7.7,8.71C31,73,28.55,75.78,26.45,78.14c-8.83-3-7.25-13.14-7.14-18.27-3.93,3.6-3.65,8-1.13,12.71C22,79.72,31.82,83.76,23.92,89c-5.89-.59-6-10.88-8.74-12.61-5.92,10.7,15.94,15,11.37,23.75-5,1.31-7.32-8.27-10.42-9.66-2.83,10.23,15.61,10.91,14.64,21.58-3.35,1.46-5.5-3.75-8.07-6.61-1.92,5.6,6.2,9.7,10.23,10.7,4.92,12.39,17,17.35,26.38,23.92-5.67,1.46-14.58-4.42-20-7.91-2.63-1.7-4.67-3.89-7.14-5.4s-4.6-.91-6.38-3.13c-3.89-4.84-.48-11.72-6.57-15-2.81,2.78,4.78,7.17,1.69,9.92-.87.57-1.42-.67-2.25-.35l-5.16-6.7c2.76-3.94,6-10.42.18-13.92-1.85,3.11,2.56,7.19-.09,10.18-3.47.82-5.39-5.29-5.63-7.31,4-4,7.3-8.17,3.56-13.4C8,90.14,13.61,94.59,7.4,97.2c-4-.82-1.17-5.16-3.85-7.56C8.2,85.89,13.94,81.9,11.8,75.89c-2.27-2.06-1.57,2.57-2.53,4.43-1.21,2.37-1.4,5.61-5.63,5.58C1.4,82.69,1.79,79.9,1.76,77c4.84-2.75,14.37-8.6,12-15.32-4.31,1.76-3.16,11-11.44,12.19C-1.77,69,.69,65.05,1.19,60.83c2.36-2,7.23.14,10.7-1.57,4-1.95,8-6.14,5.91-10.35-3.24,3.54-8.48,11.57-14.26,8.53C2.51,53.35,5.9,49.93,5.6,46c5.74.37,20.24,1.83,20.55-8.1-5,5.49-12.67,8.94-17.74,5.32-1.79-5.11,5.07-8.88,5.35-13.67,8.8.53,19.18,9,27.77,0C37.66,27.35,34.05,31.26,30.18,31.5Z"/><path class="cls-2" d="M74.06,29.88c-1.54.41-.67-1.5-1.43-1.84-2.12-3.15-5.61-5-9.55-6.4C63,18.8,64.91,17.9,67.86,18c1.07-2.33,3.36-3.49,5.25-5,2.53,1.09,5.12,2.12,5.73,5,3-.18,5.09.61,5.25,3.2-1.18,1.67-3.58,1.72-5.25,2.75C76.93,25.1,74.44,27.18,74.06,29.88Z"/><path class="cls-2" d="M85.52,21.18c.24-3.13,5.81-1.15,7.17-3.2-1.45-3.47-7.23.58-9.07-.46.51-4.73,11.73-6.54,14.32-2.29-2.06,3.14,1,3.41.48,5.95C96.85,28.22,92.15,20.35,85.52,21.18Z"/><path class="cls-2" d="M50.19,24.38a8,8,0,0,0-1.44-1.83c-.56-3.9,2.38-3.91.48-6.86,1.85-5,13.93-2.88,14.33,1.83-2,.93-6.85-2.56-9.08,0,.53,3,7,.29,7.17,3.66C56.41,20.89,54.42,23.71,50.19,24.38Z"/><path class="cls-2" d="M82.18,15.23a1.25,1.25,0,0,1-1-1.37c1.91-3,5.81-4.2,8.12-6.86-1.87-3.34-4.38.17-5.73,1.37-1.9,1.68-3.16,4.38-5.26,4.57,1.4-7.39,6-14,14.81-12.8.46,1.57,1.51,2.85,0,4.11,3,.64,5.33,2.85,4.3,5.95C91.67,11.2,85.36,11.71,82.18,15.23Z"/><path class="cls-2" d="M49.71,10.2c-.79-2.76.58-5.71,4.3-5.49C52.84,3,53.26,1.88,54,.14,62.77-1,67.42,5.55,68.81,12.94c-4.16-1.13-5.82-9.24-11-6.4,1.49,3.3,6,3.68,7.64,6.86A2.14,2.14,0,0,1,66,14.78c-2.72.66-4.71-2.87-8.12-3.66C55.21,10.51,52.24,11.72,49.71,10.2Z"/><path class="cls-1" d="M79.47,65.15A44.9,44.9,0,0,0,92.2,69.87c1.67.22-1-1.85-3.57-2.14s-8.58-2.81-8.86-4.05,3.06-4.62,10-4.09a23,23,0,0,1,15.46,7c4.08,4,3.43,5.12,2,7.07S97.58,81.41,86,75.76C78.46,71,77,66.83,77.77,65.4S79.47,65.15,79.47,65.15Z"/><path class="cls-1" d="M30.61,83.54C37.85,87.19,48,88.48,55,81.47s9.41-16.28,8.38-17.94-1-1.43-3.06,1.61A57.46,57.46,0,0,1,49,76.12c-3.61,2.52-2.28,0,.51-2.17a48.41,48.41,0,0,0,8.38-8.24c2.23-2.95,3.79-4.46,2.84-5.25s-6.21-.32-12,1.68-8.48,4-12.06,10.52S29.79,82.21,30.61,83.54Z"/><path class="cls-1" d="M68.7,58s-3.13,3.75-5.63,2.08-3.33-6-4.37-9-1.46-5.42,1.45-7.72,5.42-2.5,6.88-4.79,2.09-4,3.34-2.92.62,3.75.83,6.46,3.13,4.59,4,.63,1-5.63,2.5-5.21.2,2.5,2.5,4.79,6,4.8,4,11.47c-1,3.75-3.55,4-5.21,6s-3.75,3.34-5.63,2.71S68.7,58,68.7,58Z"/><path class="cls-1" d="M67.87,32.79c1.25,1,.62,2.3-2.5,4.59S57,40.71,56.19,38.63a4.64,4.64,0,0,1,3-5.84,4.32,4.32,0,0,1,1-.21A35.22,35.22,0,0,1,67.87,32.79Z"/><path class="cls-1" d="M74.12,32.37c-1.46.21-1.67,1.46-1.67,3.13S75.17,38,76,35.09,74.12,32.37,74.12,32.37Z"/><path class="cls-1" d="M81.83,34.25c-2.1.81-2.91,1.88-1.66,3.34a18.63,18.63,0,0,1,2.5,4c1,1.87,3.55,2.5,6,2.29S93,41.17,91.17,38,84.54,33.21,81.83,34.25Z"/><path class="cls-1" d="M67.44,86.43c0,1-1,2.78-3,5.28a27,27,0,0,1-3.53,3.8c.07,3.66.13,9.42.13,17.28a71.52,71.52,0,0,1-.67,12.06c-.48,2.45-1.49,3.67-3,3.67s-2.78-.88-4-2.65c.67-2.84,1.08-8,1.08-15.45,0-4.14-.07-7.45-.07-9.9-3,1.77-5.42,2.58-7.31,2.58s-2.65-.68-2.65-2.17a9.68,9.68,0,0,1,2.1-5.29c.14.41.61.55,1.29.55,2,0,4.34-1,7-2.85A39.19,39.19,0,0,0,63,86a3.45,3.45,0,0,1,2.58-1.49,1.73,1.73,0,0,1,1.87,1.56A2.17,2.17,0,0,1,67.44,86.43Zm35.38,1.76c1.42.41,2.16,1,2.16,1.9a9.66,9.66,0,0,1-.88,2.5,40.25,40.25,0,0,0-2.3,6.85c2,.34,4.2.68,6.37,1a9.34,9.34,0,0,1-1.36,4.33c-.67,1-1.35,1.49-2.1,1.49a13.25,13.25,0,0,1-3.73-.87,1.44,1.44,0,0,1-.54-.14c-.47,2.17-.88,4.4-1.28,6.85a1.94,1.94,0,0,1-2,1.83h-.07a48.06,48.06,0,0,1-5.23-.4c-2.78-.27-6-.41-9.83-.41a27.65,27.65,0,0,1-5.76,10.17c-3.38,3.32-6.57,4.94-9.62,4.94-2,0-2.91-.74-2.91-2.37a6.49,6.49,0,0,1,2.37-5.08c0,.54.41.81,1.36.81a7.4,7.4,0,0,0,5.82-3,17.43,17.43,0,0,0,2.92-5.35c-1.22.13-2.38.2-3.39.27a27.68,27.68,0,0,1-4.88.67c-1.63,0-2.37-1-2.37-3.18,0-1.76,1.22-2.64,3.73-2.64h8.26a46.68,46.68,0,0,0,.61-5.15,92.77,92.77,0,0,0-9.42.81,17.88,17.88,0,0,1-3.18.34,2.39,2.39,0,0,1-1.63-.82,2.1,2.1,0,0,1-.75-1.55,2.62,2.62,0,0,1,2.11-2.92,129.52,129.52,0,0,1,13.21-1c0-1.42.07-3,.07-4.61v-.2c-1.42,0-2.37.07-2.85.07a32,32,0,0,1-3.79.41c-2,0-2.92-1-2.92-2.92a2.72,2.72,0,0,1,1.36-2.57,9.4,9.4,0,0,1,4.2-.62C91.09,87.71,100.51,87.92,102.82,88.19Zm-19.59,20.2h8.54a2.55,2.55,0,0,0,2.71-2.31s.13-.67.41-2a61.45,61.45,0,0,0-10.31-1H84A52.63,52.63,0,0,1,83.23,108.39Zm1.22-10.31h1.22a99.94,99.94,0,0,1,10.23.62c.27-1.36.54-2.78.88-4.34,0-.68-.54-1.09-1.56-1.09H84.58c0,1.73-.07,3.32-.13,4.81Z"/></g></g></g></svg>